<?xml version="1.0" encoding="UTF-8" ?>
<!DOCTYPE svg PUBLIC "-//W3C//DTD SVG 1.1//EN" "http://www.w3.org/Graphics/SVG/1.1/DTD/svg11.dtd">
<svg width="161pt" height="160pt" viewBox="0 0 161 160" version="1.1" xmlns="http://www.w3.org/2000/svg">
<g id="#3369ccff">
<path fill="#3369cc" opacity="1.00" d=" M 0.00 0.00 L 161.00 0.00 L 161.00 160.00 L 0.00 160.00 L 0.00 0.00 M 12.10 12.10 C 11.97 57.36 11.98 102.64 12.10 147.90 C 57.70 148.03 103.30 148.02 148.90 147.90 C 149.03 102.64 149.03 57.36 148.90 12.10 C 103.30 11.98 57.70 11.98 12.10 12.10 Z" />
<path fill="#3369cc" opacity="1.00" d=" M 44.45 44.28 C 68.38 44.05 92.32 44.17 116.26 44.22 C 116.58 68.11 116.53 92.02 116.29 115.91 C 111.59 116.13 106.89 116.13 102.20 115.86 C 101.93 96.71 102.55 77.54 101.92 58.40 C 87.61 58.36 73.30 58.37 59.00 58.41 C 58.36 77.54 58.99 96.71 58.72 115.86 C 53.96 116.15 49.19 116.15 44.44 115.81 C 44.46 91.97 44.45 68.13 44.45 44.28 Z" />
</g>
</svg>
