<?xml version="1.0" encoding="UTF-8"?>
<!DOCTYPE svg PUBLIC "-//W3C//DTD SVG 1.1//EN" "http://www.w3.org/Graphics/SVG/1.1/DTD/svg11.dtd">
<!-- Creator: CorelDRAW 2017 -->
<svg xmlns="http://www.w3.org/2000/svg" xml:space="preserve" width="340px" height="395px" version="1.1" style="shape-rendering:geometricPrecision; text-rendering:geometricPrecision; image-rendering:optimizeQuality; fill-rule:evenodd; clip-rule:evenodd"
viewBox="0 0 340 394.58"
 xmlns:xlink="http://www.w3.org/1999/xlink">
 <defs>
  <style type="text/css">
   <![CDATA[
    .fil1 {fill:#3369CC;fill-rule:nonzero}
    .fil0 {fill:#6890D9;fill-rule:nonzero}
   ]]>
  </style>
 </defs>
 <g id="Слой_x0020_1">
  <metadata id="CorelCorpID_0Corel-Layer"/>
  <path class="fil0" d="M0.7 338.52l-0.41 0 0 -338.52 339.58 0 0 0.37c-20.06,0 -40.12,0 -60.18,0 -22.85,0 -45.71,0 -68.56,0 -22.65,0 -45.3,0 -67.95,0 -47.49,0 -94.97,0 -142.46,0.02 -0.04,112.71 0,225.42 -0.02,338.13z"/>
  <path class="fil1" d="M4.94 4.75c0,110 -0.01,220.01 0,330.01 110.01,-0.01 220,0 330,0 0,-110 0.01,-220.01 0,-330.01 -110,0 -220,0 -330,0zm-4.71 -4.73c44.24,-0.01 88.47,-0.02 132.7,-0.02l5.31 0 10.62 0 5.3 0c61.93,0 123.86,0.01 185.79,0 0,113.26 0,226.52 0,339.79 -113.25,-0.01 -226.49,-0.01 -339.74,0 0.01,-113.26 -0.02,-226.51 0.02,-339.77z"/>
  <path class="fil1" d="M244 85.98c-3.23,0.74 -5.82,3.65 -6.13,6.96 -0.33,2.74 0.9,5.59 3.09,7.25 2.28,1.79 5.54,2.18 8.17,0.99 2.56,-1.12 4.44,-3.65 4.74,-6.43 0.34,-2.66 -0.78,-5.43 -2.85,-7.12 -1.91,-1.62 -4.59,-2.25 -7.02,-1.65zm-0.26 -4.82c6.14,-1.18 12.67,2.85 14.4,8.87 1.88,5.7 -0.92,12.42 -6.25,15.12 -5.3,2.95 -12.53,1.39 -16.16,-3.48 -3.77,-4.66 -3.52,-11.98 0.55,-16.38 1.92,-2.18 4.6,-3.66 7.46,-4.13z"/>
  <path class="fil1" d="M81.43 81.35c8.37,0 16.74,0 25.11,0 0,8.31 0.01,16.62 0,24.92 -1.67,0 -3.34,0 -5.02,0 -0.01,-6.63 0,-13.26 0,-19.89 -5.02,-0.01 -10.05,0 -15.07,-0.01 -0.01,6.63 0,13.27 0,19.9 -1.68,0 -3.35,0.01 -5.03,-0.01 0.01,-8.3 0,-16.61 0.01,-24.91z"/>
  <path class="fil1" d="M162.43 86.37c-0.01,2.69 -0.01,5.38 -0.01,8.06 3.38,0.01 6.76,0.01 10.13,0.01 1.39,-0.02 2.91,-0.28 3.93,-1.31 1.09,-1.12 1.22,-2.9 0.73,-4.32 -0.61,-1.7 -2.51,-2.48 -4.2,-2.43 -3.52,-0.01 -7.05,0 -10.58,-0.01zm-5.03 -5.02c5.34,0.01 10.69,-0.01 16.03,0.01 3.56,0.06 7.21,2.19 8.45,5.64 0.96,2.75 0.84,6.1 -1.03,8.44 -2.08,2.58 -5.4,4.1 -8.7,4.02 -3.24,0 -6.49,0 -9.73,0 0,2.27 0,4.54 0,6.81 -1.66,0.01 -3.33,-0.02 -4.99,0.03 -0.08,-8.31 -0.01,-16.63 -0.03,-24.95z"/>
  <path class="fil1" d="M96.65 137.05c-0.03,4.91 -0.02,9.83 -0.01,14.74 2.97,-1.11 5.18,-4.06 5.16,-7.27 0.1,-3.28 -2.13,-6.34 -5.15,-7.47zm-10.48 7.02c-0.22,3.47 2.18,6.77 5.44,7.83 0,-4.99 0.03,-9.98 -0.01,-14.96 -3.02,1.01 -5.34,3.9 -5.43,7.13zm5.24 -11.85c5.95,-1.38 12.49,2.33 14.36,8.15 2,5.46 -0.5,12.06 -5.58,14.85 -5.02,3.02 -12.04,1.78 -15.74,-2.78 -3.79,-4.33 -3.89,-11.32 -0.23,-15.76 1.79,-2.27 4.37,-3.87 7.19,-4.46z"/>
  <path class="fil1" d="M157.37 131.89c1.68,0.01 3.36,-0.04 5.03,0.03 -0.03,5.71 0,11.42 -0.01,17.13 4.77,-5.44 9.53,-10.89 14.28,-16.35 0.36,-0.37 0.69,-0.97 1.32,-0.82 1.5,-0.01 3,0.02 4.5,0.01 0,8.35 0,16.71 0,25.06 -1.67,0 -3.35,0 -5.02,0 -0.01,-5.77 0,-11.54 -0.01,-17.31 -5.01,5.76 -10.01,11.55 -15.03,17.31 -1.69,-0.01 -3.38,0.02 -5.08,-0.03 0.04,-8.34 0,-16.69 0.02,-25.03z"/>
  <path class="fil1" d="M233.36 156.95c4.15,-8.35 8.28,-16.71 12.44,-25.06 4.19,8.36 8.4,16.7 12.59,25.06 -1.88,0 -3.76,0 -5.64,0 -2.29,-4.61 -4.56,-9.23 -6.85,-13.85 -2.38,4.59 -4.61,9.25 -6.96,13.85 -1.86,0 -3.73,0 -5.58,0z"/>
  <path class="fil1" d="M233.35 182.37c8.35,-0.01 16.7,0 25.05,0 0,1.67 0,3.35 -0.01,5.03 -3.36,-0.01 -6.72,-0.01 -10.08,-0.01 -0.01,6.76 0,13.53 0,20.28 -1.68,0 -3.35,0.01 -5.03,0 0.01,-6.76 0,-13.52 0.01,-20.27 -3.32,-0.02 -6.63,0 -9.94,-0.01 0,-1.67 0,-3.35 0,-5.02z"/>
  <path class="fil1" d="M91.66 198.24c1.51,0 3.03,0 4.54,0 -0.75,-1.51 -1.53,-3.01 -2.28,-4.53 -0.77,1.5 -1.51,3.02 -2.26,4.53zm2.17 -15.72c4.24,8.34 8.48,16.68 12.71,25.02 -1.88,0 -3.76,-0.01 -5.63,0 -0.76,-1.43 -1.41,-2.91 -2.22,-4.3 -3.18,0.06 -6.36,0.01 -9.53,0.02 -0.75,1.43 -1.4,2.91 -2.2,4.3 -1.84,-0.07 -3.69,0.02 -5.53,-0.06 4.15,-8.31 8.25,-16.66 12.4,-24.98z"/>
  <path class="fil1" d="M157.4 182.49c1.67,0 3.34,0.01 5,-0.01 0.05,3.18 0.01,6.36 0.03,9.53 3.68,-3.16 7.36,-6.34 11.04,-9.52 2.56,0 5.13,0 7.69,0 -3.74,3.24 -7.49,6.46 -11.23,9.7 4.17,5.13 8.36,10.24 12.53,15.36 -2.15,0.01 -4.3,-0.01 -6.45,0.01 -3.35,-3.99 -6.57,-8.09 -9.92,-12.08 -1.21,1.06 -2.42,2.11 -3.65,3.14 -0.04,2.97 -0.01,5.96 -0.02,8.93 -1.68,0 -3.35,0.01 -5.02,0 0,-8.35 0,-16.7 0,-25.06z"/>
  <path class="fil1" d="M81.43 233.1c1.67,-0.01 3.34,0 5.01,-0.01 0.02,5.73 0,11.45 0.01,17.18 4.98,-5.67 9.9,-11.39 14.91,-17.04 1.66,-0.33 3.47,-0.04 5.18,-0.13 0,8.35 0,16.7 0,25.05 -1.67,0.01 -3.34,0.01 -5.02,0 0,-5.76 0,-11.53 0,-17.29 -5.01,5.75 -10.01,11.52 -15.01,17.29 -1.69,0.02 -3.39,0 -5.08,0.01 -0.01,-8.36 -0.01,-16.71 0,-25.06z"/>
  <path class="fil1" d="M157.4 233.1c1.67,-0.01 3.34,0 5.01,-0.01 0.02,3.18 0.01,6.36 0.01,9.53 3.69,-3.17 7.37,-6.35 11.05,-9.52 2.57,-0.01 5.13,0 7.7,0 -3.75,3.23 -7.5,6.46 -11.24,9.69 4.17,5.13 8.35,10.25 12.53,15.37 -2.16,-0.01 -4.33,0 -6.49,-0.01 -3.28,-4.03 -6.57,-8.04 -9.84,-12.07 -1.25,1.04 -2.46,2.11 -3.7,3.17 -0.02,2.97 0,5.94 -0.01,8.91 -1.68,-0.01 -3.35,0 -5.02,-0.01 0,-8.35 0,-16.7 0,-25.05z"/>
  <path class="fil1" d="M245.8 244.32c-0.75,1.51 -1.51,3.02 -2.25,4.53 1.51,0 3.03,0 4.54,0 -0.75,-1.51 -1.52,-3.03 -2.29,-4.53zm-0.08 -11.2c4.24,8.34 8.48,16.68 12.72,25.02 -1.89,-0.01 -3.77,0 -5.65,0 -0.72,-1.43 -1.44,-2.85 -2.16,-4.27 -3.2,0 -6.39,0 -9.59,0 -0.71,1.42 -1.41,2.84 -2.13,4.27 -1.87,0 -3.73,-0.01 -5.6,0 4.14,-8.34 8.27,-16.68 12.41,-25.02z"/>
  <path class="fil1" d="M133.04 368.4c3.36,-0.57 7.22,-0.26 9.85,2.13 2.34,2.05 2.69,5.95 0.72,8.36 -0.76,0.98 -1.88,1.59 -2.96,2.16 1.36,0.52 2.74,1.19 3.64,2.38 1.88,2.4 1.54,6.09 -0.47,8.32 -1.14,1.38 -2.88,2.01 -4.42,2.83l-7.29 0c-2.52,-1 -5.06,-2.08 -7.01,-4.04 0.8,-1.05 1.62,-2.1 2.44,-3.14 1.79,1.62 3.96,2.88 6.38,3.23 2.1,0.34 4.58,0.29 6.18,-1.32 1.4,-1.37 1.25,-4.01 -0.46,-5.06 -2.16,-1.38 -4.85,-0.99 -7.28,-1.05 0,-1.24 0,-2.49 0,-3.73 2.22,-0.06 4.68,0.33 6.65,-0.94 1.78,-1.1 1.94,-3.97 0.29,-5.26 -3.34,-2.29 -8.08,-0.96 -10.83,1.7 -0.8,-0.98 -1.6,-1.95 -2.4,-2.93 1.93,-1.84 4.32,-3.23 6.97,-3.64z"/>
  <path class="fil1" d="M11.34 372.53c-2.02,0.45 -3.84,1.7 -4.99,3.41 -2.64,3.8 -2.09,9.56 1.48,12.61 3.06,2.7 8.1,2.71 11.14,-0.02 3.79,-3.31 4.06,-9.73 0.69,-13.43 -2.02,-2.31 -5.35,-3.27 -8.32,-2.57zm-7.99 -0.02c4.89,-5.62 14.59,-5.82 19.7,-0.41 4.84,4.89 4.9,13.55 0.12,18.5 -1.72,1.97 -4.18,2.96 -6.52,3.98l-6.72 0c-2.07,-0.97 -4.29,-1.77 -5.92,-3.45 -5.09,-4.75 -5.37,-13.52 -0.66,-18.62z"/>
  <path class="fil1" d="M41.51 382.39c0,2.62 -0.01,5.25 0,7.88 2.12,-0.02 4.23,0 6.35,-0.01 1.46,-0.06 3.06,-0.16 4.28,-1.07 1.31,-1.06 1.48,-3.03 0.95,-4.51 -0.64,-1.55 -2.42,-2.15 -3.96,-2.24 -2.54,-0.11 -5.08,-0.02 -7.62,-0.05zm-4.44 -13.81c6.33,-0.01 12.66,0 18.99,0 0,1.36 0,2.72 0,4.08 -4.85,0.01 -9.7,0 -14.55,0 0,1.97 0,3.93 0,5.9 2.83,0.05 5.67,-0.09 8.51,0.08 2.82,0.19 5.81,1.53 7.07,4.2 1.4,3.09 0.91,7.26 -1.83,9.46 -1.71,1.44 -4.01,1.7 -6.08,2.28l-12.11 0c0,-8.66 0.01,-17.33 0,-26z"/>
  <path class="fil1" d="M72.19 372.7c0,3.08 0,6.15 0,9.24 2.86,-0.21 5.98,0.58 8.62,-0.83 2.84,-1.5 2.9,-6.25 -0.03,-7.69 -2.67,-1.26 -5.74,-0.53 -8.59,-0.72zm-4.47 -4.12c3.52,0.01 7.03,-0.03 10.55,0.01 2.6,0.06 5.32,0.89 7.13,2.84 2.16,2.3 2.61,5.81 1.68,8.74 -0.76,2.37 -2.76,4.19 -5.07,5.03 -3.13,1.22 -6.55,0.7 -9.82,0.81 0,2.86 0,5.72 0,8.57l-4.47 0c0,-8.66 0,-17.34 0,-26z"/>
  <path class="fil1" d="M101.01 384.11c2.93,0.01 5.85,0 8.77,0.01 -1.46,-3.42 -2.93,-6.84 -4.4,-10.25 -1.47,3.41 -2.91,6.83 -4.37,10.24zm2.3 -15.61c1.39,-0.07 2.8,-0.07 4.2,-0.07 3.82,8.71 7.6,17.43 11.36,26.15l-4.77 0c-0.85,-2.16 -1.77,-4.3 -2.67,-6.46 -4.01,-0.01 -8.04,0 -12.06,0 -0.92,2.15 -1.83,4.31 -2.73,6.46l-4.59 0c3.69,-8.72 7.58,-17.36 11.26,-26.08z"/>
  <path class="fil1" d="M165.85 372.53c-2.21,0.5 -4.16,1.97 -5.29,3.92 -2.26,3.8 -1.6,9.2 1.83,12.1 3.12,2.77 8.34,2.69 11.35,-0.23 3.58,-3.37 3.76,-9.62 0.44,-13.24 -2.03,-2.3 -5.36,-3.26 -8.33,-2.55zm-7.96 -0.02c4.69,-5.38 13.81,-5.82 19.06,-1.02 5.27,4.61 5.76,13.44 1.14,18.68 -1.75,2.2 -4.37,3.34 -6.9,4.41l-6.72 0c-2.07,-0.97 -4.29,-1.77 -5.92,-3.45 -5.09,-4.75 -5.37,-13.52 -0.66,-18.62z"/>
  <path class="fil1" d="M195.94 390.3c2.28,0.01 4.56,0 6.84,0.01 1.41,-0.01 2.94,-0.06 4.16,-0.87 1.72,-1.08 1.9,-3.92 0.27,-5.16 -1.26,-0.94 -2.9,-1.04 -4.4,-1.05 -2.29,0 -4.58,0 -6.87,0.01 0,2.35 0,4.7 0,7.06zm0 -17.71c0,2.27 0,4.54 0,6.82 2.78,-0.12 5.6,0.27 8.33,-0.27 1.88,-0.37 3.13,-2.4 2.51,-4.23 -0.48,-1.67 -2.4,-2.29 -3.98,-2.31 -2.29,-0.05 -4.57,-0.01 -6.86,-0.01zm-4.39 -4.01c3.75,0 7.5,-0.01 11.26,0 2.35,-0.02 4.87,0.44 6.66,2.07 2.06,1.79 2.44,4.99 1.3,7.39 -0.6,1.28 -1.77,2.15 -2.94,2.88 1.74,0.66 3.55,1.64 4.37,3.41 1.16,2.6 0.68,6.05 -1.62,7.89 -1.79,1.54 -4.22,1.76 -6.4,2.36l-12.64 0c0,-8.66 0,-17.33 0.01,-26z"/>
  <path class="fil1" d="M228.67 384.12c2.92,-0.01 5.84,0 8.77,-0.01 -1.47,-3.42 -2.94,-6.83 -4.4,-10.25 -1.46,3.41 -2.91,6.84 -4.37,10.26zm2.36 -15.67c1.39,-0.01 2.78,-0.01 4.17,0 3.76,8.71 7.58,17.41 11.33,26.13l-4.77 0c-0.87,-2.16 -1.77,-4.31 -2.68,-6.46 -4.02,0 -8.04,-0.01 -12.06,0 -0.91,2.15 -1.83,4.3 -2.72,6.46l-4.59 0c3.72,-8.73 7.55,-17.42 11.32,-26.13z"/>
  <path class="fil1" d="M255.62 368.58c1.49,0 2.98,0 4.46,0.01 0.01,3.57 0,7.14 0.01,10.71 4.08,0 8.16,0 12.24,0 0.01,-3.57 -0.01,-7.14 0.01,-10.71 1.5,-0.01 3,-0.03 4.49,0.04 -0.07,8.65 -0.01,17.3 -0.03,25.95l-4.47 0c-0.01,-3.7 0.01,-7.4 -0.01,-11.1 -4.07,0 -8.15,-0.01 -12.23,0 -0.01,3.7 0,7.4 -0.01,11.1l-4.46 0c0,-8.66 -0.01,-17.33 0,-26z"/>
  <path class="fil1" d="M288.1 368.58c1.46,0 2.93,0 4.39,0.01 0,6.25 0,12.5 0.01,18.75 4.32,-6.26 8.62,-12.52 12.96,-18.76 1.39,0 2.78,0 4.17,0 0.01,8.67 0,17.34 0,26l-4.4 0c0,-6.33 0.01,-12.66 0,-18.99 -4.35,6.33 -8.77,12.62 -13.06,18.99l-4.07 0c0,-8.66 -0.01,-17.33 0,-26z"/>
  <path class="fil1" d="M321.07 368.58c6.3,0 12.6,0 18.91,0 0,1.35 0,2.69 0,4.04 -4.82,0.01 -9.63,0 -14.44,0.01 -0.01,2.22 -0.01,4.45 0,6.67 4.26,0 8.52,0 12.79,0 0,1.35 0,2.69 0,4.04 -4.27,0.01 -8.53,-0.01 -12.8,0.01 0.01,2.3 0,4.61 0.01,6.91 4.87,0.01 9.74,0 14.61,0.01 0,1.43 0,2.87 0.01,4.31l-19.1 0c0.01,-8.66 0,-17.34 0.01,-26z"/>
 </g>
</svg>
